<mxfile host="app.diagrams.net" modified="2022-05-17T10:11:51.520Z" agent="5.0 (Windows)" etag="XxXZuKN_RLqlyJYt2sRN" version="18.0.6" type="github">
  <diagram id="hObmTSGfALayqjZoPESj" name="Page-1">
    <mxGraphModel dx="1038" dy="487" grid="1" gridSize="10" guides="1" tooltips="1" connect="1" arrows="1" fold="1" page="1" pageScale="1" pageWidth="850" pageHeight="1100" math="0" shadow="0">
      <root>
        <mxCell id="0" />
        <mxCell id="1" parent="0" />
        <mxCell id="KQiesuTl8qTvYWLjfVIc-4" style="edgeStyle=orthogonalEdgeStyle;rounded=0;orthogonalLoop=1;jettySize=auto;html=1;" edge="1" parent="1" source="KQiesuTl8qTvYWLjfVIc-1" target="KQiesuTl8qTvYWLjfVIc-2">
          <mxGeometry relative="1" as="geometry" />
        </mxCell>
        <mxCell id="KQiesuTl8qTvYWLjfVIc-1" value="Transaction" style="sketch=0;outlineConnect=0;fontColor=#232F3E;gradientColor=none;strokeColor=#232F3E;fillColor=#ffffff;dashed=0;verticalLabelPosition=bottom;verticalAlign=top;align=center;html=1;fontSize=12;fontStyle=0;aspect=fixed;shape=mxgraph.aws4.resourceIcon;resIcon=mxgraph.aws4.lambda_function;" vertex="1" parent="1">
          <mxGeometry x="160" y="170" width="60" height="60" as="geometry" />
        </mxCell>
        <mxCell id="KQiesuTl8qTvYWLjfVIc-5" style="edgeStyle=orthogonalEdgeStyle;rounded=0;orthogonalLoop=1;jettySize=auto;html=1;" edge="1" parent="1" source="KQiesuTl8qTvYWLjfVIc-2" target="KQiesuTl8qTvYWLjfVIc-3">
          <mxGeometry relative="1" as="geometry" />
        </mxCell>
        <mxCell id="KQiesuTl8qTvYWLjfVIc-2" value="Amazon DynamoDB" style="sketch=0;outlineConnect=0;fontColor=#232F3E;gradientColor=none;strokeColor=#ffffff;fillColor=#232F3E;dashed=0;verticalLabelPosition=middle;verticalAlign=bottom;align=center;html=1;whiteSpace=wrap;fontSize=10;fontStyle=1;spacing=3;shape=mxgraph.aws4.productIcon;prIcon=mxgraph.aws4.dynamodb;" vertex="1" parent="1">
          <mxGeometry x="370" y="145" width="80" height="110" as="geometry" />
        </mxCell>
        <mxCell id="KQiesuTl8qTvYWLjfVIc-7" style="edgeStyle=orthogonalEdgeStyle;rounded=0;orthogonalLoop=1;jettySize=auto;html=1;" edge="1" parent="1" source="KQiesuTl8qTvYWLjfVIc-3" target="KQiesuTl8qTvYWLjfVIc-6">
          <mxGeometry relative="1" as="geometry" />
        </mxCell>
        <mxCell id="KQiesuTl8qTvYWLjfVIc-3" value="DynamoDB Streams" style="sketch=0;outlineConnect=0;fontColor=#232F3E;gradientColor=none;fillColor=#2E27AD;strokeColor=none;dashed=0;verticalLabelPosition=bottom;verticalAlign=top;align=center;html=1;fontSize=12;fontStyle=0;aspect=fixed;pointerEvents=1;shape=mxgraph.aws4.dynamodb_stream;" vertex="1" parent="1">
          <mxGeometry x="660" y="161" width="78" height="78" as="geometry" />
        </mxCell>
        <mxCell id="KQiesuTl8qTvYWLjfVIc-9" style="edgeStyle=orthogonalEdgeStyle;rounded=0;orthogonalLoop=1;jettySize=auto;html=1;" edge="1" parent="1" source="KQiesuTl8qTvYWLjfVIc-6" target="KQiesuTl8qTvYWLjfVIc-8">
          <mxGeometry relative="1" as="geometry" />
        </mxCell>
        <mxCell id="KQiesuTl8qTvYWLjfVIc-10" value="Create a Debt Transaction Link " style="edgeLabel;html=1;align=center;verticalAlign=middle;resizable=0;points=[];" vertex="1" connectable="0" parent="KQiesuTl8qTvYWLjfVIc-9">
          <mxGeometry x="0.184" y="-1" relative="1" as="geometry">
            <mxPoint x="-23" y="-1" as="offset" />
          </mxGeometry>
        </mxCell>
        <mxCell id="KQiesuTl8qTvYWLjfVIc-6" value="Link Debt" style="sketch=0;outlineConnect=0;fontColor=#232F3E;gradientColor=none;strokeColor=#232F3E;fillColor=#ffffff;dashed=0;verticalLabelPosition=bottom;verticalAlign=top;align=center;html=1;fontSize=12;fontStyle=0;aspect=fixed;shape=mxgraph.aws4.resourceIcon;resIcon=mxgraph.aws4.lambda_function;" vertex="1" parent="1">
          <mxGeometry x="900" y="170" width="60" height="60" as="geometry" />
        </mxCell>
        <mxCell id="KQiesuTl8qTvYWLjfVIc-8" value="Amazon DynamoDB" style="sketch=0;outlineConnect=0;fontColor=#232F3E;gradientColor=none;strokeColor=#ffffff;fillColor=#232F3E;dashed=0;verticalLabelPosition=middle;verticalAlign=bottom;align=center;html=1;whiteSpace=wrap;fontSize=10;fontStyle=1;spacing=3;shape=mxgraph.aws4.productIcon;prIcon=mxgraph.aws4.dynamodb;" vertex="1" parent="1">
          <mxGeometry x="1235" y="145" width="80" height="110" as="geometry" />
        </mxCell>
      </root>
    </mxGraphModel>
  </diagram>
</mxfile>
